<svg xmlns="http://www.w3.org/2000/svg" xmlns:xlink="http://www.w3.org/1999/xlink" width="200" zoomAndPan="magnify" viewBox="0 0 150 149.999998" height="200" preserveAspectRatio="xMidYMid meet" version="1.0"><defs><clipPath id="id1"><path d="M 15.898438 29 L 128 29 L 128 105 L 15.898438 105 Z M 15.898438 29 " clip-rule="nonzero"/></clipPath><clipPath id="id2"><path d="M 126 42 L 135.148438 42 L 135.148438 45 L 126 45 Z M 126 42 " clip-rule="nonzero"/></clipPath><clipPath id="id3"><path d="M 63 116 L 75 116 L 75 135.75 L 63 135.75 Z M 63 116 " clip-rule="nonzero"/></clipPath><clipPath id="id4"><path d="M 126 40 L 135.148438 40 L 135.148438 43 L 126 43 Z M 126 40 " clip-rule="nonzero"/></clipPath><clipPath id="id5"><path d="M 15.898438 27 L 128 27 L 128 103 L 15.898438 103 Z M 15.898438 27 " clip-rule="nonzero"/></clipPath></defs><g clip-path="url(#id1)"><path fill="#1c2a35" d="M 112.597656 55.847656 C 112.597656 55.753906 112.597656 55.660156 112.597656 55.5625 C 112.597656 44.339844 103.613281 35.28125 92.453125 35.28125 C 92.074219 35.28125 91.699219 35.28125 91.320312 35.28125 L 85.265625 32.925781 C 84.792969 32.734375 84.226562 32.925781 84.035156 33.488281 C 83.847656 33.960938 84.035156 34.527344 84.605469 34.714844 L 87.628906 35.941406 C 85.738281 36.414062 83.847656 37.167969 82.238281 38.113281 C 77.605469 32.640625 70.703125 29.152344 63.039062 29.152344 C 49.328125 29.152344 38.167969 40.09375 37.695312 53.867188 C 25.398438 55.5625 15.941406 66.222656 15.941406 79.148438 C 15.941406 93.203125 27.292969 104.617188 41.289062 104.617188 L 60.109375 104.617188 C 60.394531 103.675781 60.867188 102.449219 61.527344 100.84375 L 41.289062 100.84375 C 29.371094 100.84375 19.726562 91.128906 19.726562 79.148438 C 19.726562 68.394531 27.667969 59.148438 38.261719 57.640625 L 41.382812 57.167969 L 41.476562 53.960938 C 41.855469 42.167969 51.3125 32.925781 63.039062 32.925781 C 69.28125 32.925781 75.242188 35.660156 79.402344 40.46875 L 81.484375 42.921875 L 84.226562 41.320312 C 86.78125 39.808594 89.617188 39.054688 92.453125 39.054688 C 101.4375 39.054688 108.722656 46.414062 108.816406 55.46875 C 108.816406 55.5625 108.816406 55.660156 108.816406 55.753906 L 108.816406 58.207031 L 111.085938 59.242188 C 118.839844 62.734375 123.851562 70.5625 123.851562 79.054688 C 123.851562 91.035156 114.207031 100.75 102.289062 100.75 L 76.375 100.75 C 77.039062 102.355469 77.511719 103.582031 77.792969 104.523438 L 102.289062 104.523438 C 116.191406 104.617188 127.542969 93.203125 127.542969 79.148438 C 127.542969 68.675781 121.394531 59.808594 112.597656 55.847656 Z M 112.597656 55.847656 " fill-opacity="0.298" fill-rule="nonzero"/></g><path fill="#ffdb80" d="M 122.152344 40.753906 C 122.152344 41.640625 122.0625 42.515625 121.890625 43.386719 C 121.71875 44.253906 121.460938 45.097656 121.121094 45.917969 C 120.78125 46.734375 120.363281 47.511719 119.871094 48.25 C 119.378906 48.984375 118.816406 49.667969 118.191406 50.292969 C 117.5625 50.917969 116.878906 51.476562 116.140625 51.96875 C 115.402344 52.460938 114.621094 52.878906 113.800781 53.21875 C 112.980469 53.554688 112.136719 53.8125 111.265625 53.984375 C 110.394531 54.15625 109.515625 54.242188 108.625 54.242188 C 107.738281 54.242188 106.859375 54.15625 105.988281 53.984375 C 105.117188 53.8125 104.269531 53.554688 103.449219 53.21875 C 102.628906 52.878906 101.851562 52.460938 101.113281 51.96875 C 100.375 51.476562 99.691406 50.917969 99.0625 50.292969 C 98.433594 49.667969 97.875 48.984375 97.382812 48.25 C 96.886719 47.511719 96.472656 46.734375 96.132812 45.917969 C 95.792969 45.097656 95.535156 44.253906 95.363281 43.386719 C 95.1875 42.515625 95.101562 41.640625 95.101562 40.753906 C 95.101562 39.867188 95.1875 38.992188 95.363281 38.121094 C 95.535156 37.253906 95.792969 36.410156 96.132812 35.589844 C 96.472656 34.773438 96.886719 33.996094 97.382812 33.257812 C 97.875 32.523438 98.433594 31.839844 99.0625 31.214844 C 99.691406 30.589844 100.375 30.027344 101.113281 29.539062 C 101.851562 29.046875 102.628906 28.628906 103.449219 28.289062 C 104.269531 27.953125 105.117188 27.695312 105.988281 27.523438 C 106.859375 27.351562 107.738281 27.261719 108.625 27.261719 C 109.515625 27.261719 110.394531 27.351562 111.265625 27.523438 C 112.136719 27.695312 112.980469 27.953125 113.800781 28.289062 C 114.621094 28.628906 115.402344 29.046875 116.140625 29.539062 C 116.878906 30.027344 117.5625 30.589844 118.191406 31.214844 C 118.816406 31.839844 119.378906 32.523438 119.871094 33.257812 C 120.363281 33.996094 120.78125 34.773438 121.121094 35.589844 C 121.460938 36.410156 121.71875 37.253906 121.890625 38.121094 C 122.0625 38.992188 122.152344 39.867188 122.152344 40.753906 Z M 122.152344 40.753906 " fill-opacity="1" fill-rule="nonzero"/><path fill="#e1ebf4" d="M 37.695312 101.128906 C 37.695312 101.128906 18.683594 96.316406 18.210938 78.867188 C 17.738281 61.414062 28.992188 54.621094 39.113281 54.621094 C 39.113281 54.621094 40.53125 29.054688 60.867188 29.152344 C 81.199219 29.246094 81.765625 39.148438 81.765625 39.148438 C 81.765625 39.148438 101.722656 27.925781 109.097656 46.601562 C 109.097656 46.601562 109.949219 53.960938 113.734375 56.980469 C 117.515625 60 133.027344 71.128906 120.257812 91.695312 C 120.257812 91.695312 117.515625 100.75 105.128906 100.75 C 92.738281 100.75 37.695312 101.128906 37.695312 101.128906 Z M 37.695312 101.128906 " fill-opacity="1" fill-rule="nonzero"/><path fill="#9fa5aa" d="M 69.851562 68.582031 C 69.566406 68.109375 69.28125 67.828125 68.90625 67.828125 C 68.527344 67.828125 68.242188 68.109375 67.957031 68.582031 C 66.351562 71.695312 63.230469 78.015625 63.230469 80.5625 C 63.230469 83.960938 65.785156 86.695312 68.90625 86.695312 C 72.027344 86.695312 74.578125 83.960938 74.578125 80.5625 C 74.578125 78.015625 71.457031 71.601562 69.851562 68.582031 Z M 68.90625 84.808594 C 66.824219 84.808594 65.121094 82.921875 65.121094 80.5625 C 65.121094 79.527344 66.160156 76.414062 68.90625 70.941406 C 71.648438 76.414062 72.6875 79.527344 72.6875 80.5625 C 72.6875 82.921875 70.984375 84.808594 68.90625 84.808594 Z M 68.90625 84.808594 " fill-opacity="0.498" fill-rule="nonzero"/><path fill="#1c2a35" d="M 54.71875 109.148438 C 54.433594 108.675781 54.152344 108.390625 53.773438 108.390625 C 53.394531 108.390625 53.109375 108.675781 52.828125 109.148438 C 51.21875 112.261719 48.097656 118.582031 48.097656 121.128906 C 48.097656 124.523438 50.652344 127.257812 53.773438 127.257812 C 56.894531 127.257812 59.445312 124.523438 59.445312 121.128906 C 59.445312 118.582031 56.324219 112.164062 54.71875 109.148438 Z M 53.773438 125.371094 C 51.691406 125.371094 49.988281 123.484375 49.988281 121.128906 C 49.988281 120.089844 51.03125 116.976562 53.773438 111.503906 C 56.515625 116.976562 57.554688 120.089844 57.554688 121.128906 C 57.554688 123.484375 55.851562 125.371094 53.773438 125.371094 Z M 53.773438 125.371094 " fill-opacity="0.298" fill-rule="nonzero"/><path fill="#1c2a35" d="M 69.851562 95.941406 C 69.566406 95.46875 69.28125 95.183594 68.90625 95.183594 C 68.527344 95.183594 68.242188 95.46875 67.957031 95.941406 C 66.351562 99.054688 63.230469 105.375 63.230469 107.921875 C 63.230469 111.316406 65.785156 114.050781 68.90625 114.050781 C 72.027344 114.050781 74.578125 111.316406 74.578125 107.921875 C 74.578125 105.375 71.457031 98.957031 69.851562 95.941406 Z M 68.90625 112.164062 C 66.824219 112.164062 65.121094 110.277344 65.121094 107.921875 C 65.121094 106.882812 66.160156 103.769531 68.90625 98.296875 C 71.648438 103.769531 72.6875 106.882812 72.6875 107.921875 C 72.6875 110.277344 70.984375 112.164062 68.90625 112.164062 Z M 68.90625 112.164062 " fill-opacity="0.298" fill-rule="nonzero"/><path fill="#1c2a35" d="M 84.984375 109.148438 C 84.699219 108.675781 84.414062 108.390625 84.035156 108.390625 C 83.660156 108.390625 83.375 108.675781 83.089844 109.148438 C 81.484375 112.261719 78.363281 118.582031 78.363281 121.128906 C 78.363281 124.523438 80.914062 127.257812 84.035156 127.257812 C 87.15625 127.257812 89.710938 124.523438 89.710938 121.128906 C 89.710938 118.582031 86.589844 112.164062 84.984375 109.148438 Z M 84.035156 125.371094 C 81.957031 125.371094 80.253906 123.484375 80.253906 121.128906 C 80.253906 120.089844 81.292969 116.976562 84.035156 111.503906 C 86.78125 116.976562 87.820312 120.089844 87.820312 121.128906 C 87.820312 123.484375 86.117188 125.371094 84.035156 125.371094 Z M 84.035156 125.371094 " fill-opacity="0.298" fill-rule="nonzero"/><path fill="#1c2a35" d="M 107.679688 17.832031 L 107.679688 24.621094 C 107.679688 25.1875 108.058594 25.566406 108.625 25.566406 C 109.195312 25.566406 109.574219 25.1875 109.574219 24.621094 L 109.574219 17.832031 C 109.574219 17.265625 109.195312 16.886719 108.625 16.886719 C 108.058594 16.886719 107.679688 17.265625 107.679688 17.832031 Z M 107.679688 17.832031 " fill-opacity="0.298" fill-rule="nonzero"/><g clip-path="url(#id2)"><path fill="#1c2a35" d="M 134.160156 42.355469 L 127.351562 42.355469 C 126.785156 42.355469 126.40625 42.734375 126.40625 43.300781 C 126.40625 43.867188 126.785156 44.242188 127.351562 44.242188 L 134.160156 44.242188 C 134.730469 44.242188 135.109375 43.867188 135.109375 43.300781 C 135.109375 42.734375 134.730469 42.355469 134.160156 42.355469 Z M 134.160156 42.355469 " fill-opacity="0.298" fill-rule="nonzero"/></g><path fill="#1c2a35" d="M 126.027344 24.621094 L 121.207031 29.433594 C 120.828125 29.8125 120.828125 30.375 121.207031 30.753906 C 121.394531 30.941406 121.679688 31.035156 121.867188 31.035156 C 122.152344 31.035156 122.339844 30.941406 122.527344 30.753906 L 127.351562 25.941406 C 127.730469 25.566406 127.730469 25 127.351562 24.621094 C 126.972656 24.246094 126.40625 24.246094 126.027344 24.621094 Z M 126.027344 24.621094 " fill-opacity="0.298" fill-rule="nonzero"/><path fill="#1c2a35" d="M 95.386719 31.039062 C 95.667969 31.039062 95.859375 30.941406 96.046875 30.753906 C 96.425781 30.375 96.425781 29.8125 96.046875 29.433594 L 91.222656 24.621094 C 90.847656 24.246094 90.277344 24.246094 89.902344 24.621094 C 89.523438 25 89.523438 25.566406 89.902344 25.941406 L 94.722656 30.753906 C 94.914062 30.941406 95.101562 31.039062 95.386719 31.039062 Z M 95.386719 31.039062 " fill-opacity="0.298" fill-rule="nonzero"/><path fill="#1c2a35" d="M 132.648438 51.980469 L 126.3125 49.433594 C 125.839844 49.242188 125.273438 49.433594 125.082031 50 C 124.894531 50.46875 125.082031 51.035156 125.648438 51.226562 L 131.988281 53.773438 C 132.082031 53.773438 132.269531 53.867188 132.363281 53.867188 C 132.742188 53.867188 133.121094 53.675781 133.214844 53.300781 C 133.40625 52.734375 133.121094 52.167969 132.648438 51.980469 Z M 132.648438 51.980469 " fill-opacity="0.298" fill-rule="nonzero"/><path fill="#1c2a35" d="M 115.246094 26.886719 C 115.339844 26.886719 115.53125 26.980469 115.625 26.980469 C 116.003906 26.980469 116.382812 26.792969 116.476562 26.414062 L 119.03125 20.09375 C 119.21875 19.621094 119.03125 19.054688 118.460938 18.867188 C 117.988281 18.679688 117.421875 18.867188 117.234375 19.433594 L 114.679688 25.753906 C 114.585938 26.132812 114.773438 26.699219 115.246094 26.886719 Z M 115.246094 26.886719 " fill-opacity="0.298" fill-rule="nonzero"/><path fill="#1c2a35" d="M 99.546875 19.433594 C 99.359375 18.960938 98.789062 18.773438 98.316406 18.960938 C 97.84375 19.152344 97.65625 19.71875 97.84375 20.1875 L 100.492188 26.414062 C 100.683594 26.792969 100.964844 26.980469 101.34375 26.980469 C 101.4375 26.980469 101.628906 26.980469 101.722656 26.886719 C 102.195312 26.699219 102.382812 26.132812 102.195312 25.660156 Z M 99.546875 19.433594 " fill-opacity="0.298" fill-rule="nonzero"/><path fill="#1c2a35" d="M 124.988281 36.414062 C 125.175781 36.792969 125.460938 36.980469 125.839844 36.980469 C 125.933594 36.980469 126.121094 36.980469 126.21875 36.886719 L 132.460938 34.246094 C 132.933594 34.054688 133.121094 33.488281 132.933594 33.019531 C 132.742188 32.546875 132.175781 32.359375 131.703125 32.546875 L 125.460938 35.1875 C 124.988281 35.375 124.800781 35.941406 124.988281 36.414062 Z M 124.988281 36.414062 " fill-opacity="0.298" fill-rule="nonzero"/><path fill="#1c2a35" d="M 122.527344 55.847656 C 122.152344 55.46875 121.582031 55.46875 121.207031 55.847656 C 120.921875 56.128906 120.921875 56.414062 120.921875 56.695312 C 122.527344 58.015625 123.949219 59.527344 125.175781 61.222656 L 125.933594 61.980469 C 126.121094 62.167969 126.40625 62.261719 126.597656 62.261719 C 126.878906 62.261719 127.070312 62.167969 127.257812 61.980469 C 127.636719 61.601562 127.636719 61.035156 127.257812 60.660156 Z M 122.527344 55.847656 " fill-opacity="0.298" fill-rule="nonzero"/><path fill="#9fa5aa" d="M 70.605469 46.886719 C 70.890625 46.507812 70.796875 45.847656 70.417969 45.566406 C 67.957031 43.773438 64.933594 43.019531 61.90625 43.394531 C 57.175781 43.960938 53.300781 47.355469 52.164062 51.789062 C 51.882812 53.113281 51.785156 54.433594 51.976562 55.753906 C 52.070312 56.226562 52.449219 56.601562 52.921875 56.601562 C 52.921875 56.601562 53.015625 56.601562 53.015625 56.601562 C 53.488281 56.507812 53.867188 56.035156 53.867188 55.566406 C 53.679688 54.433594 53.773438 53.394531 54.054688 52.355469 C 55.003906 48.679688 58.21875 45.941406 62.191406 45.375 C 64.742188 45.09375 67.296875 45.753906 69.28125 47.167969 C 69.757812 47.453125 70.324219 47.355469 70.605469 46.886719 Z M 70.605469 46.886719 " fill-opacity="0.498" fill-rule="nonzero"/><path fill="#9fa5aa" d="M 109.195312 87.828125 C 108.816406 88.109375 108.722656 88.769531 109.003906 89.148438 C 109.195312 89.429688 109.476562 89.523438 109.761719 89.523438 C 109.949219 89.523438 110.140625 89.429688 110.328125 89.335938 C 112.503906 87.734375 114.113281 85.28125 114.867188 82.449219 C 116.097656 77.921875 114.867188 73.207031 111.9375 70.5625 C 111.085938 69.808594 110.046875 69.242188 109.003906 68.867188 C 108.53125 68.675781 107.964844 68.960938 107.773438 69.527344 C 107.585938 69.996094 107.871094 70.5625 108.4375 70.753906 C 109.289062 71.035156 110.046875 71.414062 110.707031 72.074219 C 113.070312 74.242188 114.113281 78.300781 113.070312 82.074219 C 112.316406 84.429688 110.992188 86.507812 109.195312 87.828125 Z M 109.195312 87.828125 " fill-opacity="0.498" fill-rule="nonzero"/><path fill="#2d4356" d="M 70.605469 45 C 70.890625 44.621094 70.796875 43.960938 70.417969 43.679688 C 67.957031 41.886719 64.933594 41.132812 61.90625 41.507812 C 57.175781 42.074219 53.300781 45.46875 52.164062 49.902344 C 51.882812 51.226562 51.785156 52.546875 51.976562 53.867188 C 52.070312 54.339844 52.449219 54.714844 52.921875 54.714844 C 52.921875 54.714844 53.015625 54.714844 53.015625 54.714844 C 53.488281 54.621094 53.867188 54.148438 53.867188 53.679688 C 53.679688 52.546875 53.773438 51.507812 54.054688 50.46875 C 55.003906 46.792969 58.21875 44.054688 62.191406 43.488281 C 64.742188 43.207031 67.296875 43.867188 69.28125 45.28125 C 69.757812 45.566406 70.324219 45.46875 70.605469 45 Z M 70.605469 45 " fill-opacity="1" fill-rule="nonzero"/><path fill="#2d4356" d="M 109.195312 85.941406 C 108.816406 86.222656 108.722656 86.882812 109.003906 87.261719 C 109.195312 87.542969 109.476562 87.636719 109.761719 87.636719 C 109.949219 87.636719 110.140625 87.542969 110.328125 87.449219 C 112.503906 85.847656 114.113281 83.394531 114.867188 80.5625 C 116.097656 76.035156 114.867188 71.320312 111.9375 68.675781 C 111.085938 67.921875 110.046875 67.355469 109.003906 66.980469 C 108.53125 66.789062 107.964844 67.074219 107.773438 67.640625 C 107.585938 68.109375 107.871094 68.675781 108.4375 68.867188 C 109.289062 69.148438 110.046875 69.527344 110.707031 70.1875 C 113.070312 72.355469 114.113281 76.414062 113.070312 80.1875 C 112.316406 82.542969 110.992188 84.621094 109.195312 85.941406 Z M 109.195312 85.941406 " fill-opacity="1" fill-rule="nonzero"/><path fill="#2d4356" d="M 54.71875 77.074219 C 54.433594 76.601562 54.152344 76.316406 53.773438 76.316406 C 53.394531 76.316406 53.109375 76.601562 52.828125 77.074219 C 51.21875 80.1875 48.097656 86.507812 48.097656 89.054688 C 48.097656 92.449219 50.652344 95.183594 53.773438 95.183594 C 56.894531 95.183594 59.445312 92.449219 59.445312 89.054688 C 59.445312 86.507812 56.324219 80.089844 54.71875 77.074219 Z M 53.773438 93.296875 C 51.691406 93.296875 49.988281 91.410156 49.988281 89.054688 C 49.988281 88.015625 51.03125 84.902344 53.773438 79.429688 C 56.515625 84.902344 57.554688 88.015625 57.554688 89.054688 C 57.554688 91.410156 55.851562 93.296875 53.773438 93.296875 Z M 53.773438 93.296875 " fill-opacity="1" fill-rule="nonzero"/><path fill="#c5edf1" d="M 57.554688 89.054688 C 57.554688 91.410156 55.851562 93.296875 53.773438 93.296875 C 51.691406 93.296875 49.988281 91.410156 49.988281 89.054688 C 49.988281 88.015625 51.03125 84.902344 53.773438 79.429688 C 56.515625 84.902344 57.554688 88.015625 57.554688 89.054688 Z M 57.554688 89.054688 " fill-opacity="1" fill-rule="nonzero"/><path fill="#2d4356" d="M 69.851562 66.695312 C 69.566406 66.222656 69.28125 65.941406 68.90625 65.941406 C 68.527344 65.941406 68.242188 66.222656 67.957031 66.695312 C 66.351562 69.808594 63.230469 76.128906 63.230469 78.675781 C 63.230469 82.074219 65.785156 84.808594 68.90625 84.808594 C 72.027344 84.808594 74.578125 82.074219 74.578125 78.675781 C 74.578125 76.128906 71.457031 69.714844 69.851562 66.695312 Z M 68.90625 82.921875 C 66.824219 82.921875 65.121094 81.035156 65.121094 78.675781 C 65.121094 77.640625 66.160156 74.527344 68.90625 69.054688 C 71.648438 74.527344 72.6875 77.640625 72.6875 78.675781 C 72.6875 81.035156 70.984375 82.921875 68.90625 82.921875 Z M 68.90625 82.921875 " fill-opacity="1" fill-rule="nonzero"/><path fill="#c5edf1" d="M 72.6875 78.675781 C 72.6875 81.035156 70.984375 82.921875 68.90625 82.921875 C 66.824219 82.921875 65.121094 81.035156 65.121094 78.675781 C 65.121094 77.640625 66.160156 74.527344 68.90625 69.054688 C 71.648438 74.527344 72.6875 77.640625 72.6875 78.675781 Z M 72.6875 78.675781 " fill-opacity="1" fill-rule="nonzero"/><path fill="#2d4356" d="M 84.984375 77.074219 C 84.699219 76.601562 84.414062 76.316406 84.035156 76.316406 C 83.660156 76.316406 83.375 76.601562 83.089844 77.074219 C 81.484375 80.1875 78.363281 86.507812 78.363281 89.054688 C 78.363281 92.449219 80.914062 95.183594 84.035156 95.183594 C 87.15625 95.183594 89.710938 92.449219 89.710938 89.054688 C 89.710938 86.507812 86.589844 80.089844 84.984375 77.074219 Z M 84.035156 93.296875 C 81.957031 93.296875 80.253906 91.410156 80.253906 89.054688 C 80.253906 88.015625 81.292969 84.902344 84.035156 79.429688 C 86.78125 84.902344 87.820312 88.015625 87.820312 89.054688 C 87.820312 91.410156 86.117188 93.296875 84.035156 93.296875 Z M 84.035156 93.296875 " fill-opacity="1" fill-rule="nonzero"/><path fill="#c5edf1" d="M 87.820312 89.054688 C 87.820312 91.410156 86.117188 93.296875 84.035156 93.296875 C 81.957031 93.296875 80.253906 91.410156 80.253906 89.054688 C 80.253906 88.015625 81.292969 84.902344 84.035156 79.429688 C 86.78125 84.902344 87.820312 88.015625 87.820312 89.054688 Z M 87.820312 89.054688 " fill-opacity="1" fill-rule="nonzero"/><path fill="#ffffff" d="M 108.816406 53.582031 C 108.816406 53.675781 108.816406 53.773438 108.816406 53.867188 L 108.816406 56.320312 C 108.25 47.734375 101.15625 40.941406 92.453125 40.941406 C 89.523438 40.941406 86.683594 41.695312 84.226562 43.207031 L 81.484375 44.808594 L 79.308594 42.355469 C 75.242188 37.546875 69.28125 34.8125 62.945312 34.8125 C 51.3125 34.8125 41.855469 44.054688 41.476562 55.847656 L 41.382812 59.054688 L 38.261719 59.527344 C 28.332031 60.847656 20.671875 69.148438 19.820312 79.054688 C 19.726562 78.488281 19.726562 77.828125 19.726562 77.261719 C 19.726562 66.507812 27.667969 57.261719 38.261719 55.753906 L 41.382812 55.28125 L 41.476562 52.074219 C 41.574219 50.375 41.761719 48.679688 42.234375 47.074219 C 43.371094 42.546875 46.207031 38.394531 49.894531 35.566406 C 53.960938 32.453125 59.070312 30.847656 64.269531 31.132812 C 70.132812 31.414062 75.621094 34.148438 79.402344 38.679688 L 81.484375 41.132812 C 81.484375 41.132812 84.226562 39.527344 84.226562 39.527344 C 86.96875 37.921875 90.277344 37.074219 93.398438 37.261719 C 101.910156 37.640625 108.722656 44.808594 108.816406 53.582031 Z M 108.816406 53.582031 " fill-opacity="0.498" fill-rule="nonzero"/><path fill="#ffffff" d="M 123.757812 77.261719 C 123.757812 77.921875 123.757812 78.488281 123.664062 79.148438 C 123.003906 71.320312 118.179688 64.433594 110.992188 61.222656 L 108.722656 60.1875 L 108.722656 57.734375 C 108.722656 57.640625 108.722656 57.546875 108.722656 57.453125 C 108.722656 57.074219 108.722656 56.789062 108.722656 56.414062 L 110.992188 57.453125 C 118.746094 60.847656 123.757812 68.675781 123.757812 77.261719 Z M 123.757812 77.261719 " fill-opacity="0.498" fill-rule="nonzero"/><path fill="#2d4356" d="M 54.71875 107.261719 C 54.433594 106.789062 54.152344 106.503906 53.773438 106.503906 C 53.394531 106.503906 53.109375 106.789062 52.828125 107.261719 C 51.21875 110.375 48.097656 116.695312 48.097656 119.242188 C 48.097656 122.636719 50.652344 125.371094 53.773438 125.371094 C 56.894531 125.371094 59.445312 122.636719 59.445312 119.242188 C 59.445312 116.695312 56.324219 110.277344 54.71875 107.261719 Z M 53.773438 123.484375 C 51.691406 123.484375 49.988281 121.597656 49.988281 119.242188 C 49.988281 118.203125 51.03125 115.089844 53.773438 109.617188 C 56.515625 115.089844 57.554688 118.203125 57.554688 119.242188 C 57.554688 121.597656 55.851562 123.484375 53.773438 123.484375 Z M 53.773438 123.484375 " fill-opacity="1" fill-rule="nonzero"/><path fill="#c5edf1" d="M 57.554688 119.242188 C 57.554688 121.597656 55.851562 123.484375 53.773438 123.484375 C 51.691406 123.484375 49.988281 121.597656 49.988281 119.242188 C 49.988281 118.203125 51.03125 115.089844 53.773438 109.617188 C 56.515625 115.089844 57.554688 118.203125 57.554688 119.242188 Z M 57.554688 119.242188 " fill-opacity="1" fill-rule="nonzero"/><path fill="#9fa5aa" d="M 63.136719 95.183594 L 41.289062 95.183594 C 30.035156 95.183594 20.765625 86.414062 19.820312 75.28125 C 19.726562 75.941406 19.726562 76.601562 19.726562 77.261719 C 19.726562 88.863281 28.710938 98.394531 40.058594 98.957031 C 40.4375 98.957031 40.816406 98.957031 41.289062 98.957031 L 61.433594 98.957031 C 61.90625 97.828125 62.472656 96.601562 63.136719 95.183594 Z M 63.136719 95.183594 " fill-opacity="0.498" fill-rule="nonzero"/><path fill="#9fa5aa" d="M 123.664062 75.28125 C 122.71875 86.414062 113.449219 95.183594 102.195312 95.183594 L 74.671875 95.183594 C 75.335938 96.601562 75.902344 97.828125 76.375 98.957031 L 102.195312 98.957031 C 102.574219 98.957031 102.953125 98.957031 103.425781 98.957031 C 114.773438 98.394531 123.757812 88.863281 123.757812 77.261719 C 123.757812 76.601562 123.757812 75.941406 123.664062 75.28125 Z M 123.664062 75.28125 " fill-opacity="0.498" fill-rule="nonzero"/><path fill="#2d4356" d="M 69.851562 94.054688 C 69.566406 93.582031 69.28125 93.296875 68.90625 93.296875 C 68.527344 93.296875 68.242188 93.582031 67.957031 94.054688 C 66.351562 97.167969 63.230469 103.488281 63.230469 106.035156 C 63.230469 109.429688 65.785156 112.164062 68.90625 112.164062 C 72.027344 112.164062 74.578125 109.429688 74.578125 106.035156 C 74.578125 103.488281 71.457031 97.070312 69.851562 94.054688 Z M 68.90625 110.277344 C 66.824219 110.277344 65.121094 108.390625 65.121094 106.035156 C 65.121094 104.996094 66.160156 101.882812 68.90625 96.410156 C 71.648438 101.882812 72.6875 104.996094 72.6875 106.035156 C 72.6875 108.390625 70.984375 110.277344 68.90625 110.277344 Z M 68.90625 110.277344 " fill-opacity="1" fill-rule="nonzero"/><path fill="#c5edf1" d="M 72.6875 106.035156 C 72.6875 108.390625 70.984375 110.277344 68.90625 110.277344 C 66.824219 110.277344 65.121094 108.390625 65.121094 106.035156 C 65.121094 104.996094 66.160156 101.882812 68.90625 96.410156 C 71.648438 101.882812 72.6875 104.996094 72.6875 106.035156 Z M 72.6875 106.035156 " fill-opacity="1" fill-rule="nonzero"/><path fill="#2d4356" d="M 84.984375 107.261719 C 84.699219 106.789062 84.414062 106.503906 84.035156 106.503906 C 83.660156 106.503906 83.375 106.789062 83.089844 107.261719 C 81.484375 110.375 78.363281 116.695312 78.363281 119.242188 C 78.363281 122.636719 80.914062 125.371094 84.035156 125.371094 C 87.15625 125.371094 89.710938 122.636719 89.710938 119.242188 C 89.710938 116.695312 86.589844 110.277344 84.984375 107.261719 Z M 84.035156 123.484375 C 81.957031 123.484375 80.253906 121.597656 80.253906 119.242188 C 80.253906 118.203125 81.292969 115.089844 84.035156 109.617188 C 86.78125 115.089844 87.820312 118.203125 87.820312 119.242188 C 87.820312 121.597656 86.117188 123.484375 84.035156 123.484375 Z M 84.035156 123.484375 " fill-opacity="1" fill-rule="nonzero"/><path fill="#c5edf1" d="M 87.820312 119.242188 C 87.820312 121.597656 86.117188 123.484375 84.035156 123.484375 C 81.957031 123.484375 80.253906 121.597656 80.253906 119.242188 C 80.253906 118.203125 81.292969 115.089844 84.035156 109.617188 C 86.78125 115.089844 87.820312 118.203125 87.820312 119.242188 Z M 87.820312 119.242188 " fill-opacity="1" fill-rule="nonzero"/><g clip-path="url(#id3)"><path fill="#2d4356" d="M 69.851562 117.636719 C 69.566406 117.164062 69.28125 116.882812 68.90625 116.882812 C 68.527344 116.882812 68.242188 117.164062 67.957031 117.636719 C 66.351562 120.75 63.230469 127.070312 63.230469 129.617188 C 63.230469 133.015625 65.785156 135.75 68.90625 135.75 C 72.027344 135.75 74.578125 133.015625 74.578125 129.617188 C 74.578125 127.070312 71.457031 120.65625 69.851562 117.636719 Z M 68.90625 133.863281 C 66.824219 133.863281 65.121094 131.976562 65.121094 129.617188 C 65.121094 128.582031 66.160156 125.46875 68.90625 119.996094 C 71.648438 125.46875 72.6875 128.582031 72.6875 129.617188 C 72.6875 131.976562 70.984375 133.863281 68.90625 133.863281 Z M 68.90625 133.863281 " fill-opacity="1" fill-rule="nonzero"/></g><path fill="#c5edf1" d="M 72.6875 129.617188 C 72.6875 131.976562 70.984375 133.863281 68.90625 133.863281 C 66.824219 133.863281 65.121094 131.976562 65.121094 129.617188 C 65.121094 128.582031 66.160156 125.46875 68.90625 119.996094 C 71.648438 125.46875 72.6875 128.582031 72.6875 129.617188 Z M 72.6875 129.617188 " fill-opacity="1" fill-rule="nonzero"/><path fill="#2d4356" d="M 107.679688 15.945312 L 107.679688 22.734375 C 107.679688 23.300781 108.058594 23.679688 108.625 23.679688 C 109.195312 23.679688 109.574219 23.300781 109.574219 22.734375 L 109.574219 15.945312 C 109.574219 15.378906 109.195312 15 108.625 15 C 108.058594 15 107.679688 15.378906 107.679688 15.945312 Z M 107.679688 15.945312 " fill-opacity="1" fill-rule="nonzero"/><g clip-path="url(#id4)"><path fill="#2d4356" d="M 134.160156 40.46875 L 127.351562 40.46875 C 126.785156 40.46875 126.40625 40.847656 126.40625 41.414062 C 126.40625 41.980469 126.785156 42.355469 127.351562 42.355469 L 134.160156 42.355469 C 134.730469 42.355469 135.109375 41.980469 135.109375 41.414062 C 135.109375 40.847656 134.730469 40.46875 134.160156 40.46875 Z M 134.160156 40.46875 " fill-opacity="1" fill-rule="nonzero"/></g><path fill="#2d4356" d="M 126.027344 22.734375 L 121.207031 27.546875 C 120.828125 27.925781 120.828125 28.488281 121.207031 28.867188 C 121.394531 29.054688 121.679688 29.148438 121.867188 29.148438 C 122.152344 29.148438 122.339844 29.054688 122.527344 28.867188 L 127.351562 24.054688 C 127.730469 23.679688 127.730469 23.113281 127.351562 22.734375 C 126.972656 22.359375 126.40625 22.359375 126.027344 22.734375 Z M 126.027344 22.734375 " fill-opacity="1" fill-rule="nonzero"/><path fill="#2d4356" d="M 95.386719 29.152344 C 95.667969 29.152344 95.859375 29.054688 96.046875 28.867188 C 96.425781 28.488281 96.425781 27.925781 96.046875 27.546875 L 91.222656 22.734375 C 90.847656 22.359375 90.277344 22.359375 89.902344 22.734375 C 89.523438 23.113281 89.523438 23.679688 89.902344 24.054688 L 94.722656 28.867188 C 94.914062 29.054688 95.101562 29.152344 95.386719 29.152344 Z M 95.386719 29.152344 " fill-opacity="1" fill-rule="nonzero"/><path fill="#2d4356" d="M 132.648438 50.09375 L 126.3125 47.546875 C 125.839844 47.355469 125.273438 47.546875 125.082031 48.113281 C 124.894531 48.582031 125.082031 49.148438 125.648438 49.339844 L 131.988281 51.886719 C 132.082031 51.886719 132.269531 51.980469 132.363281 51.980469 C 132.742188 51.980469 133.121094 51.789062 133.214844 51.414062 C 133.40625 50.847656 133.121094 50.28125 132.648438 50.09375 Z M 132.648438 50.09375 " fill-opacity="1" fill-rule="nonzero"/><path fill="#2d4356" d="M 115.246094 25 C 115.339844 25 115.53125 25.09375 115.625 25.09375 C 116.003906 25.09375 116.382812 24.90625 116.476562 24.527344 L 119.03125 18.207031 C 119.21875 17.734375 119.03125 17.167969 118.460938 16.980469 C 117.988281 16.792969 117.421875 16.980469 117.234375 17.546875 L 114.679688 23.867188 C 114.585938 24.246094 114.773438 24.8125 115.246094 25 Z M 115.246094 25 " fill-opacity="1" fill-rule="nonzero"/><path fill="#2d4356" d="M 99.546875 17.546875 C 99.359375 17.074219 98.789062 16.886719 98.316406 17.074219 C 97.84375 17.265625 97.65625 17.832031 97.84375 18.300781 L 100.492188 24.527344 C 100.683594 24.90625 100.964844 25.09375 101.34375 25.09375 C 101.4375 25.09375 101.628906 25.09375 101.722656 25 C 102.195312 24.8125 102.382812 24.246094 102.195312 23.773438 Z M 99.546875 17.546875 " fill-opacity="1" fill-rule="nonzero"/><path fill="#2d4356" d="M 124.988281 34.527344 C 125.175781 34.90625 125.460938 35.09375 125.839844 35.09375 C 125.933594 35.09375 126.121094 35.09375 126.21875 35 L 132.460938 32.359375 C 132.933594 32.167969 133.121094 31.601562 132.933594 31.132812 C 132.742188 30.660156 132.175781 30.472656 131.703125 30.660156 L 125.460938 33.300781 C 124.988281 33.488281 124.800781 34.054688 124.988281 34.527344 Z M 124.988281 34.527344 " fill-opacity="1" fill-rule="nonzero"/><path fill="#2d4356" d="M 122.527344 53.960938 C 122.152344 53.582031 121.582031 53.582031 121.207031 53.960938 C 120.921875 54.242188 120.921875 54.527344 120.921875 54.808594 C 122.527344 56.128906 123.949219 57.640625 125.175781 59.335938 L 125.933594 60.09375 C 126.121094 60.28125 126.40625 60.375 126.597656 60.375 C 126.878906 60.375 127.070312 60.28125 127.257812 60.09375 C 127.636719 59.714844 127.636719 59.148438 127.257812 58.773438 Z M 122.527344 53.960938 " fill-opacity="1" fill-rule="nonzero"/><path fill="#f9edd2" d="M 121.300781 42.261719 C 121.015625 38.679688 119.3125 35.28125 116.191406 33.019531 C 114.015625 31.414062 111.464844 30.566406 108.722656 30.566406 C 105.976562 30.566406 103.234375 31.507812 101.15625 33.113281 C 100.492188 32.828125 99.738281 32.640625 99.074219 32.359375 C 99.640625 31.886719 100.210938 31.414062 100.777344 31.039062 C 100.871094 31.039062 102.195312 29.054688 103.707031 28.585938 C 112.03125 26.132812 114.964844 28.679688 116.664062 29.90625 C 120.257812 32.640625 121.582031 38.113281 121.300781 42.261719 Z M 121.300781 42.261719 " fill-opacity="0.498" fill-rule="nonzero"/><path fill="#426666" d="M 57.554688 89.054688 C 57.554688 91.222656 56.042969 93.109375 54.152344 93.296875 C 54.054688 93.296875 53.867188 93.296875 53.773438 93.296875 C 53.679688 93.296875 53.488281 93.296875 53.394531 93.296875 C 51.503906 93.109375 49.988281 91.222656 49.988281 89.054688 C 49.988281 88.863281 49.988281 88.582031 50.085938 88.203125 C 50.460938 90.089844 51.976562 91.410156 53.773438 91.410156 C 55.570312 91.410156 56.988281 89.996094 57.460938 88.203125 C 57.554688 88.582031 57.554688 88.863281 57.554688 89.054688 Z M 57.554688 89.054688 " fill-opacity="0.298" fill-rule="nonzero"/><path fill="#426666" d="M 72.6875 78.675781 C 72.6875 80.847656 71.175781 82.734375 69.28125 82.921875 C 69.1875 82.921875 69 82.921875 68.90625 82.921875 C 68.808594 82.921875 68.621094 82.921875 68.527344 82.921875 C 66.636719 82.734375 65.121094 80.847656 65.121094 78.675781 C 65.121094 78.488281 65.121094 78.203125 65.214844 77.828125 C 65.59375 79.714844 67.109375 81.035156 68.90625 81.035156 C 70.703125 81.035156 72.121094 79.621094 72.59375 77.828125 C 72.6875 78.203125 72.6875 78.488281 72.6875 78.675781 Z M 72.6875 78.675781 " fill-opacity="0.298" fill-rule="nonzero"/><path fill="#426666" d="M 87.820312 89.054688 C 87.820312 91.222656 86.304688 93.109375 84.414062 93.296875 C 84.320312 93.296875 84.132812 93.296875 84.035156 93.296875 C 83.941406 93.296875 83.753906 93.296875 83.660156 93.296875 C 81.765625 93.109375 80.253906 91.222656 80.253906 89.054688 C 80.253906 88.863281 80.253906 88.582031 80.347656 88.203125 C 80.726562 90.089844 82.238281 91.410156 84.035156 91.410156 C 85.832031 91.410156 87.253906 89.996094 87.726562 88.203125 C 87.820312 88.582031 87.820312 88.863281 87.820312 89.054688 Z M 87.820312 89.054688 " fill-opacity="0.298" fill-rule="nonzero"/><path fill="#426666" d="M 57.554688 119.242188 C 57.554688 121.410156 56.042969 123.296875 54.152344 123.484375 C 54.054688 123.484375 53.867188 123.484375 53.773438 123.484375 C 53.679688 123.484375 53.488281 123.484375 53.394531 123.484375 C 51.503906 123.296875 49.988281 121.410156 49.988281 119.242188 C 49.988281 119.050781 49.988281 118.769531 50.085938 118.390625 C 50.460938 120.277344 51.976562 121.597656 53.773438 121.597656 C 55.570312 121.597656 56.988281 120.183594 57.460938 118.390625 C 57.554688 118.769531 57.554688 119.050781 57.554688 119.242188 Z M 57.554688 119.242188 " fill-opacity="0.298" fill-rule="nonzero"/><path fill="#426666" d="M 72.6875 106.035156 C 72.6875 108.203125 71.175781 110.089844 69.28125 110.277344 C 69.1875 110.277344 69 110.277344 68.90625 110.277344 C 68.808594 110.277344 68.621094 110.277344 68.527344 110.277344 C 66.636719 110.089844 65.121094 108.203125 65.121094 106.035156 C 65.121094 105.84375 65.121094 105.5625 65.214844 105.183594 C 65.59375 107.070312 67.109375 108.390625 68.90625 108.390625 C 70.703125 108.390625 72.121094 106.976562 72.59375 105.183594 C 72.6875 105.5625 72.6875 105.84375 72.6875 106.035156 Z M 72.6875 106.035156 " fill-opacity="0.298" fill-rule="nonzero"/><path fill="#426666" d="M 87.820312 119.242188 C 87.820312 121.410156 86.304688 123.296875 84.414062 123.484375 C 84.320312 123.484375 84.132812 123.484375 84.035156 123.484375 C 83.941406 123.484375 83.753906 123.484375 83.660156 123.484375 C 81.765625 123.296875 80.253906 121.410156 80.253906 119.242188 C 80.253906 119.050781 80.253906 118.769531 80.347656 118.390625 C 80.726562 120.277344 82.238281 121.597656 84.035156 121.597656 C 85.832031 121.597656 87.253906 120.183594 87.726562 118.390625 C 87.820312 118.769531 87.820312 119.050781 87.820312 119.242188 Z M 87.820312 119.242188 " fill-opacity="0.298" fill-rule="nonzero"/><path fill="#426666" d="M 72.6875 129.617188 C 72.6875 131.789062 71.175781 133.675781 69.28125 133.863281 C 69.1875 133.863281 69 133.863281 68.90625 133.863281 C 68.808594 133.863281 68.621094 133.863281 68.527344 133.863281 C 66.636719 133.675781 65.121094 131.789062 65.121094 129.617188 C 65.121094 129.429688 65.121094 129.144531 65.214844 128.769531 C 65.59375 130.65625 67.109375 131.976562 68.90625 131.976562 C 70.703125 131.976562 72.121094 130.5625 72.59375 128.769531 C 72.6875 129.144531 72.6875 129.429688 72.6875 129.617188 Z M 72.6875 129.617188 " fill-opacity="0.298" fill-rule="nonzero"/><path fill="#2d4356" d="M 101.058594 31.226562 C 103.234375 29.621094 105.882812 28.679688 108.625 28.679688 C 111.371094 28.679688 113.921875 29.527344 116.097656 31.132812 C 121.679688 35.28125 122.90625 43.113281 118.746094 48.773438 C 117.988281 49.808594 117.136719 50.660156 116.097656 51.414062 C 116.097656 51.507812 116.097656 51.601562 116.097656 51.601562 C 116.664062 51.886719 117.136719 52.261719 117.707031 52.546875 C 118.652344 51.792969 119.503906 50.941406 120.257812 49.90625 C 124.988281 43.488281 123.664062 34.433594 117.136719 29.621094 C 116.191406 28.960938 115.152344 28.300781 114.015625 27.828125 C 112.976562 27.359375 111.84375 27.074219 110.613281 26.886719 C 109.855469 26.792969 109.097656 26.699219 108.34375 26.699219 C 104.84375 26.699219 101.4375 28.019531 98.789062 30.472656 C 99.738281 30.753906 100.398438 30.941406 101.058594 31.226562 Z M 101.058594 31.226562 " fill-opacity="1" fill-rule="nonzero"/><g clip-path="url(#id5)"><path fill="#2d4356" d="M 112.597656 53.960938 C 112.597656 53.867188 112.597656 53.773438 112.597656 53.675781 C 112.597656 42.453125 103.613281 33.394531 92.453125 33.394531 C 92.074219 33.394531 91.699219 33.394531 91.320312 33.394531 L 85.265625 31.039062 C 84.792969 30.847656 84.226562 31.039062 84.035156 31.601562 C 83.847656 32.074219 84.035156 32.640625 84.605469 32.828125 L 87.628906 34.054688 C 85.738281 34.527344 83.847656 35.28125 82.238281 36.226562 C 77.605469 30.753906 70.703125 27.265625 63.039062 27.265625 C 49.328125 27.265625 38.167969 38.207031 37.695312 51.980469 C 25.398438 53.675781 15.941406 64.335938 15.941406 77.261719 C 15.941406 91.316406 27.292969 102.730469 41.289062 102.730469 L 60.109375 102.730469 C 60.394531 101.789062 60.867188 100.5625 61.527344 98.957031 L 41.289062 98.957031 C 29.371094 98.957031 19.726562 89.242188 19.726562 77.261719 C 19.726562 66.507812 27.667969 57.261719 38.261719 55.753906 L 41.382812 55.28125 L 41.476562 52.074219 C 41.855469 40.28125 51.3125 31.039062 63.039062 31.039062 C 69.28125 31.039062 75.242188 33.773438 79.402344 38.582031 L 81.484375 41.035156 L 84.226562 39.433594 C 86.78125 37.921875 89.617188 37.167969 92.453125 37.167969 C 101.4375 37.167969 108.722656 44.527344 108.816406 53.582031 C 108.816406 53.675781 108.816406 53.773438 108.816406 53.867188 L 108.816406 56.320312 L 111.085938 57.355469 C 118.839844 60.847656 123.851562 68.675781 123.851562 77.167969 C 123.851562 89.148438 114.207031 98.863281 102.289062 98.863281 L 76.375 98.863281 C 77.039062 100.46875 77.511719 101.695312 77.792969 102.636719 L 102.289062 102.636719 C 116.191406 102.730469 127.542969 91.316406 127.542969 77.261719 C 127.542969 66.789062 121.394531 57.921875 112.597656 53.960938 Z M 112.597656 53.960938 " fill-opacity="1" fill-rule="nonzero"/></g></svg>